<svg width="243" height="241" viewBox="0 0 243 241" fill="none" xmlns="http://www.w3.org/2000/svg">
<g id="logo 1" clip-path="url(#clip0_2053_160)">
<g id="Group_46">
<path id="Path_3784" d="M225.692 138.038C227.738 126.207 244.283 114.429 242.574 102.811C240.847 91.0722 221.566 84.5583 216.287 73.9279C211.058 63.3996 217.589 44.189 209.147 35.6269C201.007 27.3651 181.589 33.317 170.712 27.6645C159.834 22.012 153.731 2.82137 142.237 0.889888C130.32 -1.10666 118.082 15.1475 106.369 16.8773C94.5341 18.6248 78.1566 6.63328 67.4287 11.9021C56.804 17.1215 56.4415 37.2984 47.7821 45.6956C39.433 53.7972 19.0136 53.5948 13.2929 64.41C7.57226 75.2252 19.3587 91.7339 17.3792 103.146C15.3308 114.965 -1.212 126.754 0.490772 138.368C2.21782 150.107 21.4984 156.621 26.7772 167.251C32.0065 177.78 25.4754 196.99 33.9175 205.552C42.0578 213.814 61.4683 207.858 72.3529 213.515C83.2376 219.172 89.3332 238.358 100.828 240.289C112.744 242.286 124.983 226.032 136.696 224.302C148.531 222.554 164.908 234.546 175.636 229.277C186.261 224.058 186.623 203.881 195.282 195.484C203.632 187.382 224.051 187.584 229.772 176.769C235.504 165.952 223.713 149.45 225.692 138.038ZM206.843 164.957C182.171 211.796 123.962 230.025 76.8271 205.684C76.7611 205.65 76.6951 205.615 76.6359 205.586C29.5223 181.081 11.432 123.161 36.2212 76.2225C60.898 29.3768 119.107 11.147 166.237 35.4953C166.303 35.5296 166.369 35.5638 166.435 35.5981C213.542 60.0982 231.644 118.016 206.843 164.957Z" fill="#B31221"/>
<path id="Path_3785" d="M111.324 107.099C111.4 107.061 111.464 107.025 111.529 106.989C111.453 107.027 111.388 107.063 111.324 107.099Z" fill="#B31221"/>
<path id="Path_3786" d="M129.686 40.1074C85.4573 35.8192 45.9561 68.3763 41.4537 112.824C36.9513 157.271 69.151 196.784 113.379 201.072C157.607 205.36 197.109 172.803 201.611 128.356C206.113 83.9086 173.914 44.3956 129.686 40.1074ZM50.4501 120.089C50.4136 120.084 50.3771 120.08 50.3406 120.075C49.5122 119.995 48.8821 119.288 48.9106 118.458C48.917 118.186 48.9302 117.919 48.9434 117.652C48.9813 116.779 49.7212 116.1 50.6002 116.135C51.4792 116.17 52.1616 116.903 52.1237 117.775C52.1083 118.031 52.1043 118.285 52.0957 118.545C52.0646 119.422 51.3269 120.113 50.4501 120.089ZM59.5924 89.5738C59.4766 89.8022 59.3609 90.0307 59.2406 90.2659C58.8675 91.0622 57.9198 91.4053 57.1184 91.0374C56.317 90.6695 55.974 89.73 56.347 88.9337C56.3609 88.9134 56.3679 88.8885 56.3817 88.8681C56.5067 88.6261 56.6202 88.3863 56.7452 88.1443C57.1455 87.3663 58.1045 87.0504 58.8874 87.4455C59.6771 87.845 59.9927 88.7958 59.5924 89.5738ZM56.5237 149.282C55.7108 149.617 54.777 149.239 54.4422 148.434L54.1367 147.687C53.8179 146.872 54.2146 145.953 55.0366 145.635C55.8472 145.318 56.758 145.7 57.0906 146.495L57.385 147.214C57.7198 148.02 57.3367 148.948 56.5237 149.282ZM153.198 57.3608C153.605 56.5873 154.573 56.2874 155.351 56.6892C155.595 56.8125 155.834 56.9425 156.066 57.0681C156.844 57.4699 157.144 58.4296 156.736 59.2031C156.329 59.9766 155.361 60.2765 154.583 59.8747C154.576 59.8702 154.563 59.861 154.556 59.8565C154.331 59.7355 154.098 59.61 153.869 59.4958C153.09 59.094 152.791 58.1343 153.198 57.3608ZM133.518 49.4359C133.788 49.4777 134.052 49.5264 134.328 49.5727C135.195 49.7279 135.765 50.5526 135.606 51.4132C135.454 52.2194 134.708 52.7762 133.887 52.7006C133.85 52.6959 133.802 52.6935 133.759 52.6842C133.501 52.6402 133.255 52.594 132.993 52.5567C132.123 52.4197 131.538 51.6039 131.678 50.741C131.83 49.8759 132.654 49.2921 133.518 49.4359ZM102.843 50.9803L103.628 50.7748C104.483 50.5673 105.348 51.0759 105.554 51.9243C105.765 52.7658 105.255 53.6182 104.413 53.8348L103.656 54.0291C102.8 54.2366 101.939 53.7098 101.732 52.8615C101.539 52.0517 102.024 51.2219 102.843 50.9803ZM78.1085 66.892L77.4978 67.3814C76.8158 67.9318 75.8117 67.8328 75.2544 67.1644C74.7018 66.4893 74.8044 65.4926 75.4796 64.9377L76.1088 64.4211C76.7976 63.8753 77.7971 63.9811 78.3497 64.6562C78.9046 65.3427 78.8019 66.3395 78.1085 66.892ZM74.1964 173.355C73.5914 173.996 72.5841 174.033 71.9464 173.439C71.7444 173.255 71.5492 173.075 71.3518 172.884C70.7234 172.277 70.7119 171.273 71.3259 170.647C71.9306 170.035 72.9151 170.003 73.5506 170.585L74.1224 171.116C74.7555 171.716 74.7899 172.716 74.1964 173.355ZM100.355 187.987C100.117 188.687 99.4269 189.133 98.6875 189.053C98.5666 189.041 98.4548 189.016 98.3341 188.974C98.0743 188.89 97.8146 188.805 97.5594 188.713C96.7324 188.427 96.2954 187.523 96.5864 186.702C96.8774 185.88 97.7893 185.444 98.6163 185.73C98.8579 185.813 99.1062 185.9 99.3477 185.982C100.184 186.255 100.63 187.145 100.353 187.976C100.36 187.981 100.36 187.981 100.355 187.987ZM128.86 192.302C128.593 192.33 128.318 192.354 128.051 192.383C127.946 192.391 127.845 192.393 127.747 192.377C126.876 192.287 126.232 191.512 126.325 190.647C126.403 189.89 127.005 189.297 127.764 189.231C128.02 189.205 128.283 189.184 128.539 189.157C129.418 189.075 130.191 189.719 130.265 190.587C130.348 191.442 129.719 192.205 128.86 192.302ZM133.281 156.826C130.201 157.095 127.097 157.152 124.004 156.988C108.794 156.144 102.607 149.779 102.607 149.779C86.8211 134.396 100.528 123.187 100.528 123.187C110.32 113.811 108.911 108.312 108.911 108.312C108.832 108.298 108.75 108.273 108.67 108.259C98.7865 106.162 96.3886 100.426 96.3886 100.426C95.3882 98.7611 96.0899 95.6296 96.0899 95.6296C96.1318 95.5097 96.1874 95.3989 96.2566 95.2972C96.9999 94.1171 98.6253 95.2133 98.6253 95.2133C101.821 97.0633 103.889 96.3142 103.889 96.3142C105.05 95.7 106.079 94.8587 106.901 93.8397L107.033 93.6906C109.581 85.2929 118.499 80.5113 126.959 83.0091C135.414 85.5136 140.207 94.3495 137.666 102.752C136.468 106.715 133.755 110.061 130.113 112.075L127.376 114.143C133.2 113.458 140.099 117.813 140.099 117.813C141.093 118.438 142.188 118.884 143.34 119.131C144.686 119.34 146.23 118.192 147.532 116.862C148.571 115.772 149.516 114.588 150.344 113.326C152.913 109.608 155.736 111.584 155.736 111.584C166.113 122.129 157.1 141.881 157.112 141.879C150.705 155.204 133.281 156.826 133.281 156.826ZM158.082 182.802L157.383 183.203C156.612 183.635 155.641 183.371 155.215 182.612C154.782 181.849 155.051 180.885 155.816 180.459L156.495 180.075C157.256 179.626 158.23 179.873 158.679 180.627C159.128 181.381 158.877 182.348 158.116 182.796C158.098 182.793 158.087 182.795 158.082 182.802ZM179.099 79.0514C178.401 79.5812 177.401 79.446 176.869 78.7551C176.711 78.5505 176.553 78.346 176.394 78.1414C175.887 77.4279 176.052 76.4427 176.772 75.9378C177.444 75.46 178.369 75.5745 178.91 76.193C179.082 76.4067 179.243 76.6226 179.404 76.8385C179.936 77.5294 179.801 78.5147 179.099 79.0514ZM189.586 134.277C189.638 134.025 189.69 133.774 189.742 133.523C189.908 132.667 190.747 132.103 191.61 132.265C192.472 132.427 193.037 133.259 192.871 134.115C192.822 134.377 192.767 134.647 192.706 134.912C192.541 135.709 191.797 136.248 190.987 136.17C190.932 136.163 190.878 136.156 190.823 136.149C189.963 135.969 189.409 135.135 189.586 134.277ZM190.274 102.481C191.13 102.273 191.985 102.795 192.196 103.637C192.196 103.637 192.196 103.637 192.198 103.648C192.26 103.907 192.318 104.172 192.38 104.431C192.575 105.281 192.035 106.134 191.177 106.33C190.32 106.526 189.462 105.992 189.267 105.142C189.212 104.888 189.152 104.641 189.092 104.393C188.89 103.538 189.412 102.684 190.274 102.481ZM177.709 160.981C177.859 160.776 178.013 160.563 178.163 160.358C178.684 159.65 179.681 159.498 180.392 160.013C181.083 160.514 181.252 161.475 180.761 162.183C180.602 162.402 180.443 162.621 180.284 162.84C179.763 163.548 178.773 163.705 178.057 163.197C177.35 162.675 177.188 161.689 177.709 160.981Z" fill="#B31221"/>
</g>
</g>
<defs>
<clipPath id="clip0_2053_160">
<rect width="243" height="241" fill="white"/>
</clipPath>
</defs>
</svg>
