<svg width="279" height="188" viewBox="0 0 279 188" fill="none" xmlns="http://www.w3.org/2000/svg">
<path d="M105.013 154.846V150.875L105.011 134.65L87.3542 126.582L79.9554 132.36C78.1599 133.892 77.127 136.135 77.127 138.495V138.693C77.127 143.065 79.4611 147.106 83.2479 149.294L89.9425 153.157L98.871 158.313C102.669 160.507 107.354 160.507 111.153 158.313L108.284 159.514L105.018 159.959L105.013 154.846Z" fill="#F1F5F9"/>
<path d="M105.013 154.846V150.875L105.011 134.65L87.3542 126.582L79.9554 132.36C78.1599 133.892 77.127 136.135 77.127 138.495V138.693C77.127 143.065 79.4611 147.106 83.2479 149.294L89.9425 153.157L98.871 158.313C102.669 160.507 107.354 160.507 111.153 158.313L108.284 159.514L105.018 159.959L105.013 154.846Z" stroke="black" stroke-width="3.4977" stroke-linejoin="round"/>
<path d="M195.279 95.4897L187.871 89.7022L105.013 133.552V150.875L105.018 159.959L107.967 159.556C108.18 159.488 108.513 159.381 108.725 159.313L141.415 142.079C151.831 136.588 162.835 132.288 174.216 129.263L191.928 124.556C195.748 122.35 198.098 118.274 198.098 113.864V101.606C198.098 99.2532 197.068 97.017 195.279 95.4897Z" fill="#E3E9F1"/>
<path d="M195.279 95.4897L187.871 89.7022L105.013 133.552V150.875L105.018 159.959L107.967 159.556C108.18 159.488 108.513 159.381 108.725 159.313L141.415 142.079C151.831 136.588 162.835 132.288 174.216 129.263L191.928 124.556C195.748 122.35 198.098 118.274 198.098 113.864V101.606C198.098 99.2532 197.068 97.017 195.279 95.4897Z" stroke="black" stroke-width="3.4977" stroke-linejoin="round"/>
<path d="M105.013 150.875L77.6331 135.685L105.013 150.875Z" fill="#F1F5F9"/>
<path d="M105.013 150.875L77.6331 135.685" stroke="black" stroke-width="3.4977" stroke-linejoin="round"/>
<path d="M105.011 150.875L197.457 98.8801L105.011 150.875Z" fill="#F1F5F9"/>
<path d="M105.011 150.875L197.457 98.8801" stroke="black" stroke-width="3.4977" stroke-linejoin="round"/>
<path d="M87.3544 126.582L168.762 80.3493C169.66 79.8293 170.77 79.8293 171.668 80.3493L187.874 89.7045C188.739 90.2035 188.739 91.4557 187.874 91.9547L106.466 138.187C105.568 138.707 104.458 138.707 103.56 138.187L87.3544 128.832C86.4893 128.333 86.4893 127.081 87.3544 126.582Z" fill="#F1F5F9"/>
<path d="M87.3544 126.582L168.762 80.3493C169.66 79.8293 170.77 79.8293 171.668 80.3493L187.874 89.7045C188.739 90.2035 188.739 91.4557 187.874 91.9547L106.466 138.187C105.568 138.707 104.458 138.707 103.56 138.187L87.3544 128.832C86.4893 128.333 86.4893 127.081 87.3544 126.582Z" stroke="black" stroke-width="3.4977" stroke-linejoin="round"/>
<path d="M265.616 70.0894C262.61 72.8806 259.019 75.5202 254.84 77.9476C234.052 90.0286 204.205 93.7082 177.83 88.9887C166.276 86.9203 155.387 83.2408 146.218 77.9476C131.076 69.2057 123.516 57.7285 123.548 46.2701L123.523 54.8861C123.49 66.3445 131.052 77.8193 146.195 86.5613C155.364 91.8544 166.253 95.5364 177.807 97.6047C204.182 102.324 234.027 98.6446 254.815 86.5636C258.993 84.1362 262.584 81.4966 265.59 78.7054C273.266 71.5748 277.114 63.4554 277.137 55.3245L277.16 46.7085C277.137 54.8394 273.292 62.9588 265.616 70.0894Z" fill="#E3E9F1"/>
<path d="M265.616 70.0894C262.61 72.8806 259.019 75.5202 254.84 77.9476C234.052 90.0286 204.205 93.7082 177.83 88.9887C166.276 86.9203 155.387 83.2408 146.218 77.9476C131.076 69.2057 123.516 57.7285 123.548 46.2701L123.523 54.8861C123.49 66.3445 131.052 77.8193 146.195 86.5613C155.364 91.8544 166.253 95.5363 177.807 97.6047C204.182 102.324 234.027 98.6446 254.815 86.5636C258.993 84.1362 262.584 81.4966 265.59 78.7054C273.266 71.5748 277.114 63.4554 277.137 55.3245L277.16 46.7085C277.137 54.8394 273.292 62.9588 265.616 70.0894Z" stroke="black" stroke-width="3.4977" stroke-linecap="round" stroke-linejoin="round"/>
<path d="M254.486 15.0286C284.58 32.4029 284.739 60.5734 254.84 77.9476C224.944 95.3195 176.312 95.3218 146.218 77.9476C116.129 60.5757 115.97 32.4052 145.864 15.031C175.762 -2.34327 224.396 -2.34327 254.486 15.0286Z" fill="#F1F5F9"/>
<path d="M254.486 15.0286C284.58 32.4029 284.739 60.5734 254.84 77.9476C224.944 95.3195 176.312 95.3218 146.218 77.9476C116.129 60.5757 115.97 32.4052 145.864 15.031C175.762 -2.34327 224.396 -2.34327 254.486 15.0286Z" stroke="black" stroke-width="3.4977" stroke-linecap="round" stroke-linejoin="round"/>
<path d="M210.784 33.4312C216.583 36.7797 216.615 42.2081 210.853 45.5566C205.094 48.905 195.72 48.905 189.921 45.5566C184.122 42.2081 184.094 36.7797 189.853 33.4312C195.615 30.0827 204.984 30.0827 210.784 33.4312Z" fill="#F1F5F9"/>
<path d="M210.784 33.4312C216.583 36.7797 216.615 42.2081 210.853 45.5566C205.094 48.905 195.72 48.905 189.921 45.5566C184.122 42.2081 184.094 36.7797 189.853 33.4312C195.615 30.0827 204.984 30.0827 210.784 33.4312Z" stroke="black" stroke-width="3.4977" stroke-linecap="round" stroke-linejoin="round"/>
<path d="M223.35 45.433C222.419 46.6502 221.188 47.8045 219.651 48.8654" stroke="#00D9C8" stroke-width="3.4977" stroke-linecap="round" stroke-linejoin="round"/>
<path d="M222.995 33.1981C224.042 34.4549 224.76 35.7794 225.15 37.1295" stroke="#00D9C8" stroke-width="3.4977" stroke-linecap="round" stroke-linejoin="round"/>
<path d="M212.357 26.7157C214.407 27.3639 216.335 28.194 218.075 29.1967" stroke="#00D9C8" stroke-width="3.4977" stroke-linecap="round" stroke-linejoin="round"/>
<path d="M190.844 25.9904C193.447 25.3795 196.193 25.0344 198.959 24.9504" stroke="#00D9C8" stroke-width="3.4977" stroke-linecap="round" stroke-linejoin="round"/>
<g style="mix-blend-mode:screen" opacity="0.7">
<path d="M195.568 52.7525C195.568 52.7525 189.119 71.4605 182.517 82.8607C182.517 82.8607 230.664 89.7046 256.767 68.4082L246.994 64.9711C241.365 62.6114 231.077 56.9171 226.087 53.4008L217.284 48.0679C217.284 48.0679 210.17 54.5317 195.568 52.7525Z" fill="#F1F5F9"/>
</g>
<path d="M23.6611 123.115C27.1915 125.15 31.5403 125.141 35.0613 123.089L102.289 83.2874C109.835 78.892 109.812 67.9861 102.25 63.621L102.245 63.6187C98.7148 61.5807 94.3636 61.59 90.8426 63.642L23.6168 103.446C16.0711 107.841 16.0968 118.752 23.6611 123.115Z" fill="#F1F5F9"/>
<path d="M23.6611 123.115C27.1915 125.15 31.5403 125.141 35.0613 123.089L102.289 83.2874C109.835 78.892 109.812 67.9861 102.25 63.621L102.245 63.6187C98.7148 61.5807 94.3636 61.59 90.8426 63.642L23.6168 103.446C16.0711 107.841 16.0968 118.752 23.6611 123.115Z" stroke="black" stroke-width="3.4977" stroke-linejoin="round"/>
<path d="M23.4371 123.303C25.9368 125.227 28.8049 125.402 30.9548 123.763L30.8476 123.945C35.4575 120.433 34.5272 110.926 29.1733 106.804L29.171 106.801C26.6713 104.878 23.8032 104.7 21.651 106.34L21.7629 106.16C17.1529 109.672 18.081 119.181 23.4371 123.303Z" fill="#F1F5F9"/>
<path d="M23.4371 123.303C25.9368 125.227 28.8049 125.402 30.9548 123.763L30.8476 123.945C35.4575 120.433 34.5272 110.926 29.1733 106.804L29.171 106.801C26.6713 104.878 23.8032 104.7 21.651 106.34L21.7629 106.16C17.1529 109.672 18.081 119.181 23.4371 123.303Z" stroke="black" stroke-width="3.4977" stroke-linejoin="round"/>
<path d="M111.069 172.908C114.599 174.943 118.948 174.934 122.469 172.882L189.697 133.081C197.243 128.685 197.219 117.779 189.657 113.414L189.653 113.412C186.122 111.374 181.771 111.383 178.25 113.435L111.024 153.239C103.479 157.635 103.504 168.545 111.069 172.908Z" fill="#F1F5F9"/>
<path d="M111.069 172.908C114.599 174.943 118.948 174.934 122.469 172.882L189.697 133.081C197.243 128.685 197.219 117.779 189.657 113.414L189.653 113.412C186.122 111.374 181.771 111.383 178.25 113.435L111.024 153.239C103.479 157.635 103.504 168.545 111.069 172.908Z" stroke="black" stroke-width="3.4977" stroke-linejoin="round"/>
<path d="M110.845 173.094C113.345 175.018 116.213 175.193 118.363 173.554L118.255 173.736C122.865 170.224 121.935 160.717 116.581 156.595L116.579 156.592C114.079 154.668 111.211 154.491 109.059 156.131L109.171 155.951C104.561 159.463 105.489 168.972 110.845 173.094Z" fill="#F1F5F9"/>
<path d="M110.845 173.094C113.345 175.018 116.213 175.193 118.363 173.554L118.255 173.736C122.865 170.224 121.935 160.717 116.581 156.595L116.579 156.592C114.079 154.668 111.211 154.491 109.059 156.131L109.171 155.951C104.561 159.463 105.489 168.972 110.845 173.094Z" stroke="black" stroke-width="3.4977" stroke-linejoin="round"/>
<path d="M60.8953 107.795L75.9494 98.8825L120.435 107.795L105.013 116.553L60.8953 107.795Z" fill="#F1F5F9"/>
<path d="M60.8953 107.795L75.9494 98.8825L120.435 107.795L105.013 116.553L60.8953 107.795Z" stroke="black" stroke-width="3.4977" stroke-linejoin="round"/>
<g style="mix-blend-mode:screen" opacity="0.7">
<path d="M132.841 153.449C133.386 154.487 134.65 154.857 135.676 154.272L184.222 126.633C185.241 126.053 185.64 124.737 185.094 123.7C184.551 122.662 183.27 122.298 182.251 122.879L133.706 150.518C132.68 151.103 132.297 152.411 132.841 153.449Z" fill="#F1F5F9"/>
</g>
<g style="mix-blend-mode:screen" opacity="0.7">
<path d="M43.7075 103.208C44.2531 104.246 45.517 104.616 46.543 104.031L95.0887 76.3923C96.1077 75.8117 96.5065 74.4965 95.9608 73.4589C95.4175 72.4212 94.1373 72.0575 93.1183 72.6381L44.5726 100.277C43.5466 100.862 43.1642 102.17 43.7075 103.208Z" fill="#F1F5F9"/>
</g>
<g opacity="0.592999">
<path d="M87.4424 171.863L97.2407 187.393L115.026 175.656C118.228 173.75 121.978 168.408 118.76 161.509L118.517 161.077C115.313 155.435 111.267 155.777 106.133 158.761L87.4424 171.863Z" fill="url(#paint0_linear_2053_254)"/>
</g>
<g opacity="0.592999">
<path d="M0 122.081L9.79834 137.611L27.5841 125.874C30.7861 123.968 34.5355 118.627 31.3178 111.727L31.0745 111.295C27.8705 105.653 23.8248 105.995 18.6902 108.98L0 122.081Z" fill="url(#paint1_linear_2053_254)"/>
</g>
<defs>
<linearGradient id="paint0_linear_2053_254" x1="109.823" y1="167.54" x2="95.6603" y2="180.089" gradientUnits="userSpaceOnUse">
<stop offset="0.76" stop-color="#5EEBDC"/>
<stop offset="0.84" stop-color="#5EEBDC" stop-opacity="0.5"/>
<stop offset="1" stop-color="#5EEBDC" stop-opacity="0"/>
</linearGradient>
<linearGradient id="paint1_linear_2053_254" x1="25.9831" y1="115.139" x2="7.03384" y2="130.829" gradientUnits="userSpaceOnUse">
<stop offset="0.76" stop-color="#5EEBDC"/>
<stop offset="0.84" stop-color="#5EEBDC" stop-opacity="0.5"/>
<stop offset="1" stop-color="#5EEBDC" stop-opacity="0"/>
</linearGradient>
</defs>
</svg>
