<svg width="48" height="48" viewBox="0 0 48 48" fill="none" xmlns="http://www.w3.org/2000/svg">
<rect width="48" height="48" fill="#F5F5F5"/>
<g id="logo 2" clip-path="url(#clip0_2002_35)">
<g id="Group_46">
<path id="Path_3784" d="M44.5916 27.5216C44.9926 25.1665 48.2582 22.8261 47.9171 20.5122C47.5725 18.1744 43.7611 16.8719 42.7151 14.7538C41.6788 12.656 42.9638 8.83273 41.2933 7.12552C39.6826 5.47818 35.8477 6.65777 33.6968 5.52919C31.5459 4.40062 30.3346 0.57778 28.063 0.189934C25.7079 -0.210986 23.2944 3.02195 20.9805 3.36306C18.6427 3.70766 15.4033 1.31533 13.2852 2.36139C11.1874 3.39762 11.1215 7.41498 9.41297 9.08453C7.76563 10.6953 3.73102 10.6492 2.6038 12.801C1.47657 14.9528 3.81011 18.2433 3.42226 20.515C3.02091 22.8678 -0.244327 25.2105 0.0954356 27.5235C0.44003 29.8613 4.25143 31.1637 5.29749 33.2819C6.33372 35.3797 5.04878 39.2029 6.71924 40.9101C8.33 42.5575 12.1635 41.377 14.3158 42.5064C16.468 43.6359 17.6779 47.4579 19.9496 47.8457C22.3047 48.2466 24.7182 45.0137 27.0321 44.6726C29.3699 44.328 32.6092 46.7203 34.7274 45.6742C36.8252 44.638 36.891 40.6207 38.5996 38.9511C40.2469 37.3403 44.2815 37.3864 45.4088 35.2346C46.5382 33.0824 44.2038 29.7933 44.5916 27.5216ZM40.8751 32.8761C36.0137 42.1953 24.5177 45.8086 15.1976 40.9485C15.1845 40.9417 15.1715 40.9348 15.1598 40.9289C5.84384 36.0363 2.2529 24.4985 7.13746 15.1596C11.9998 5.83897 23.4958 2.2257 32.815 7.08714C32.8281 7.09397 32.8411 7.10081 32.8542 7.10765C42.1687 11.9993 45.7619 23.5367 40.8751 32.8761Z" fill="#B31221"/>
<path id="Path_3785" d="M21.9898 21.3309C22.0048 21.3233 22.0176 21.3161 22.0303 21.3089C22.0153 21.3165 22.0026 21.3237 21.9898 21.3309Z" fill="#B31221"/>
<path id="Path_3786" d="M25.5943 7.99482C16.8541 7.12842 9.05846 13.5999 8.18156 22.4487C7.30466 31.2976 13.6782 39.1744 22.4184 40.0408C31.1585 40.9072 38.9542 34.4357 39.8311 25.5869C40.708 16.738 34.3344 8.86122 25.5943 7.99482ZM9.96122 23.898C9.954 23.897 9.94679 23.8961 9.93958 23.8951C9.77587 23.8789 9.65117 23.7379 9.65655 23.5728C9.65774 23.5187 9.66028 23.4654 9.66281 23.4122C9.67005 23.2385 9.81605 23.1035 9.98973 23.1107C10.1634 23.118 10.2985 23.264 10.2912 23.4376C10.2883 23.4886 10.2875 23.5391 10.2859 23.591C10.28 23.7656 10.1345 23.9029 9.96122 23.898ZM11.7589 17.8245C11.7361 17.8699 11.7133 17.9154 11.6896 17.9622C11.6161 18.1206 11.4289 18.1887 11.2705 18.1152C11.112 18.0417 11.044 17.8545 11.1175 17.6961C11.1202 17.692 11.1216 17.6871 11.1243 17.6831C11.1489 17.6349 11.1713 17.5872 11.1959 17.539C11.2748 17.3842 11.4642 17.3216 11.619 17.4005C11.7751 17.4803 11.8378 17.6697 11.7589 17.8245ZM11.1696 29.7125C11.0091 29.7789 10.8245 29.7035 10.7581 29.5429L10.6975 29.3941C10.6343 29.2318 10.7124 29.049 10.8748 28.9858C11.0348 28.923 11.2149 28.9993 11.2808 29.1576L11.3392 29.301C11.4056 29.4615 11.3302 29.6461 11.1696 29.7125ZM30.2449 11.4369C30.3252 11.283 30.5164 11.2236 30.6702 11.3038C30.7184 11.3284 30.7656 11.3544 30.8115 11.3794C30.9654 11.4597 31.0249 11.6508 30.9447 11.8047C30.8644 11.9586 30.6733 12.0181 30.5194 11.9379C30.518 11.937 30.5153 11.9351 30.514 11.9342C30.4694 11.9101 30.4235 11.885 30.3781 11.8622C30.2242 11.782 30.1647 11.5908 30.2449 11.4369ZM26.3543 9.85336C26.4075 9.86176 26.4597 9.87152 26.5143 9.88083C26.6856 9.91196 26.7984 10.0764 26.7673 10.2477C26.7376 10.4081 26.5904 10.5188 26.428 10.5035C26.4208 10.5026 26.4113 10.5021 26.4027 10.5002C26.3518 10.4914 26.3031 10.4821 26.2513 10.4746C26.0795 10.4471 25.9635 10.2845 25.991 10.1127C26.0208 9.94049 26.1834 9.82448 26.3543 9.85336ZM20.2936 10.1522L20.4486 10.1115C20.6176 10.0704 20.7885 10.1719 20.8296 10.3409C20.8716 10.5085 20.771 10.6781 20.6047 10.721L20.4551 10.7595C20.2862 10.8005 20.1157 10.6954 20.0746 10.5264C20.0362 10.3651 20.1318 10.2 20.2936 10.1522ZM15.411 13.3134L15.2904 13.4107C15.1558 13.5201 14.9574 13.5001 14.8471 13.3669C14.7377 13.2323 14.7577 13.0338 14.8909 12.9235L15.0151 12.8209C15.1511 12.7124 15.3486 12.7337 15.458 12.8683C15.5678 13.0052 15.5478 13.2036 15.411 13.3134ZM14.6684 34.5108C14.5491 34.6383 14.35 34.6454 14.2239 34.5269C14.1839 34.4902 14.1453 34.4543 14.1062 34.4162C13.9819 34.2951 13.9793 34.0952 14.1005 33.9708C14.2198 33.8492 14.4143 33.843 14.54 33.9591L14.6532 34.0649C14.7784 34.1847 14.7855 34.3837 14.6684 34.5108ZM19.8412 37.4317C19.7944 37.5709 19.6581 37.6595 19.512 37.6434C19.4881 37.641 19.466 37.636 19.4422 37.6277C19.3908 37.6108 19.3395 37.5938 19.289 37.5755C19.1255 37.5182 19.039 37.3382 19.0962 37.1747C19.1535 37.0112 19.3335 36.9246 19.497 36.9819C19.5448 36.9983 19.5939 37.0158 19.6416 37.0323C19.8069 37.0868 19.8953 37.2642 19.8407 37.4295C19.8421 37.4304 19.8421 37.4304 19.8412 37.4317ZM25.4747 38.2989C25.4218 38.3045 25.3677 38.3092 25.3149 38.3148C25.2941 38.3165 25.2742 38.3168 25.2548 38.3135C25.0826 38.2955 24.9552 38.1409 24.9733 37.9687C24.9885 37.818 25.1074 37.7 25.2573 37.6872C25.3078 37.6821 25.3597 37.6779 25.4103 37.6727C25.5841 37.6565 25.7368 37.785 25.7517 37.9579C25.7684 38.1281 25.6444 38.28 25.4747 38.2989ZM26.3381 31.2364C25.7296 31.2891 25.1163 31.2994 24.5051 31.266C21.4995 31.0936 20.2752 29.8246 20.2752 29.8246C17.1518 26.7569 19.8569 24.529 19.8569 24.529C21.7889 22.6648 21.5091 21.5696 21.5091 21.5696C21.4933 21.5668 21.4771 21.5618 21.4613 21.559C19.5079 21.1385 19.0325 19.9958 19.0325 19.9958C18.8343 19.664 18.9721 19.0406 18.9721 19.0406C18.9803 19.0168 18.9913 18.9947 19.0049 18.9745C19.1514 18.7397 19.4729 18.9585 19.4729 18.9585C20.1049 19.3277 20.5132 19.1792 20.5132 19.1792C20.7426 19.0572 20.9456 18.89 21.1078 18.6873L21.1337 18.6577C21.6347 16.9863 23.3955 16.0367 25.0678 16.5364C26.7392 17.0375 27.6888 18.7983 27.189 20.4706C26.9534 21.2594 26.4183 21.9249 25.6992 22.3249L25.1592 22.7358C26.3096 22.6011 27.6741 23.4702 27.6741 23.4702C27.8706 23.5948 28.0872 23.684 28.3148 23.7334C28.5808 23.7755 28.8856 23.5474 29.1424 23.283C29.3475 23.0661 29.5338 22.8307 29.6971 22.5797C30.2036 21.8401 30.762 22.2343 30.762 22.2343C32.8153 24.337 31.0402 28.2673 31.0424 28.2668C29.7804 30.9184 26.3381 31.2364 26.3381 31.2364ZM31.2458 36.4157L31.1078 36.4953C30.9557 36.5811 30.7638 36.5282 30.6793 36.377C30.5935 36.225 30.6464 36.033 30.7975 35.9486L30.9315 35.8721C31.0818 35.7831 31.2742 35.8324 31.3632 35.9827C31.4522 36.133 31.4029 36.3254 31.2526 36.4144C31.249 36.4139 31.2468 36.4143 31.2458 36.4157ZM35.3688 15.7632C35.2311 15.8685 35.0336 15.8413 34.9283 15.7036C34.8969 15.6628 34.8655 15.622 34.8342 15.5812C34.7338 15.439 34.766 15.2429 34.9082 15.1426C35.0409 15.0476 35.2236 15.0707 35.3308 15.194C35.3648 15.2366 35.3966 15.2796 35.4284 15.3227C35.5338 15.4604 35.5074 15.6565 35.3688 15.7632ZM37.4569 26.7624C37.467 26.7124 37.4772 26.6624 37.4874 26.6123C37.5199 26.4419 37.6856 26.33 37.856 26.3625C38.0264 26.395 38.1384 26.5607 38.1059 26.7311C38.0961 26.7834 38.0855 26.837 38.0735 26.8898C38.041 27.0484 37.8943 27.1555 37.7342 27.1398C37.7233 27.1384 37.7125 27.1369 37.7017 27.1355C37.5318 27.0994 37.4221 26.9333 37.4569 26.7624ZM37.5836 20.4315C37.7526 20.3904 37.9217 20.4947 37.9637 20.6623C37.9637 20.6623 37.9637 20.6623 37.9641 20.6645C37.9765 20.7161 37.988 20.7689 38.0003 20.8204C38.0391 20.9898 37.9326 21.1594 37.7632 21.1982C37.5938 21.237 37.4243 21.1305 37.3855 20.9611C37.3744 20.9105 37.3625 20.8613 37.3506 20.812C37.3104 20.6417 37.4133 20.4717 37.5836 20.4315ZM35.1177 32.0764C35.1472 32.0355 35.1777 31.9932 35.2072 31.9523C35.3099 31.8116 35.5068 31.7815 35.6475 31.8842C35.7842 31.9842 35.8179 32.1757 35.721 32.3164C35.6897 32.36 35.6583 32.4036 35.6269 32.4472C35.5242 32.5879 35.3287 32.6189 35.1871 32.5176C35.0473 32.4135 35.0149 32.2171 35.1177 32.0764Z" fill="#B31221"/>
</g>
</g>
<defs>
<clipPath id="clip0_2002_35">
<rect width="48" height="48" fill="white"/>
</clipPath>
</defs>
</svg>
