<svg width="25" height="26" viewBox="0 0 25 26" fill="none" xmlns="http://www.w3.org/2000/svg">
<g id="Frame">
<path id="Vector" d="M0.78125 5.64227C0.78125 5.02067 1.02818 4.42453 1.46772 3.98499C1.90726 3.54545 2.5034 3.29852 3.125 3.29852H21.875C22.4966 3.29852 23.0927 3.54545 23.5323 3.98499C23.9718 4.42453 24.2188 5.02067 24.2188 5.64227V7.52977L12.5 14.1204L0.78125 7.52977V5.64227Z" fill="#B31221"/>
<path id="Vector_2" d="M0.78125 9.32194V21.2672C0.78125 21.8889 1.02818 22.485 1.46772 22.9245C1.90726 23.3641 2.5034 23.611 3.125 23.611H21.875C22.4966 23.611 23.0927 23.3641 23.5323 22.9245C23.9718 22.485 24.2188 21.8889 24.2188 21.2672V9.32194L12.5 15.9141L0.78125 9.32194Z" fill="#B31221"/>
</g>
</svg>
