<svg width="25" height="26" viewBox="0 0 25 26" fill="none" xmlns="http://www.w3.org/2000/svg">
<path id="Subtract" fill-rule="evenodd" clip-rule="evenodd" d="M16.1891 25.3198C21.2919 23.6897 25 18.7666 25 12.9464C25 5.79631 19.4036 0 12.5 0C5.59644 0 0 5.79631 0 12.9464C0 18.8362 3.79741 23.8074 8.99477 25.3769C8.97963 25.3212 8.97178 25.2633 8.97178 25.2047V22.6353C8.31553 22.7317 7.74022 22.6931 7.2343 22.5335C6.49421 22.3009 5.99552 21.8426 5.62981 21.3885C5.44912 21.1628 5.29301 20.9316 5.15713 20.7224L5.05884 20.571C4.97091 20.4303 4.87934 20.2917 4.7842 20.1554C4.53702 19.8099 4.38669 19.7067 4.27105 19.6792L3.57143 19.5044L3.93858 18.1722L4.6382 18.347C5.29735 18.5122 5.70497 18.9966 5.97962 19.3833C6.09141 19.5434 6.19937 19.7058 6.30341 19.8705L6.3858 19.9985C6.50603 20.189 6.63629 20.3737 6.77608 20.5517C7.0435 20.882 7.32248 21.1119 7.6853 21.2261C7.97584 21.3169 8.38347 21.3541 8.97178 21.2371V20.4141C8.93086 19.9683 8.98796 19.5193 9.13946 19.0957C8.17676 18.8989 7.21696 18.5548 6.42627 17.908C5.29735 16.9846 4.63531 15.5478 4.63531 13.4105C4.63216 12.334 5.02434 11.2902 5.744 10.4599C5.46613 9.49986 5.54738 8.47772 5.97383 7.56844C6.01713 7.47682 6.08098 7.39533 6.16089 7.32971C6.24081 7.26409 6.33484 7.21593 6.43639 7.1886L6.63442 7.84919L6.43639 7.18723H6.44073L6.44651 7.18447L6.46097 7.18172C6.57125 7.159 6.68352 7.1461 6.79632 7.14319C7.04422 7.13968 7.29168 7.16416 7.53352 7.21613C8.10015 7.33173 8.87927 7.6056 9.89979 8.2015C11.6667 7.8106 13.5043 7.8106 15.2712 8.2015C16.2917 7.6056 17.0709 7.33173 17.6361 7.21613C17.8779 7.16419 18.1254 7.1397 18.3733 7.14319C18.4497 7.14458 18.526 7.15056 18.6016 7.16108C18.6382 7.16599 18.6744 7.17288 18.7101 7.18172L18.7231 7.18447L18.7288 7.18723L18.7317 7.1886C18.7332 7.1886 18.7346 7.1886 18.5367 7.84899L18.7346 7.1886C18.8361 7.21625 18.9299 7.26471 19.0096 7.33056C19.0892 7.39642 19.1528 7.47808 19.1957 7.56982C19.6219 8.4787 19.7031 9.50029 19.4256 10.4599C20.1398 11.2831 20.5321 12.3166 20.5357 13.3844V13.3857C20.5357 15.5354 19.8751 16.9859 18.7476 17.9163C17.9613 18.5631 17.0087 18.9071 16.0504 19.0998C16.179 19.47 16.1992 19.8678 16.1992 20.3013V25.2047C16.1992 25.2436 16.1958 25.282 16.1891 25.3198Z" fill="#B31221"/>
</svg>
