<svg width="26" height="27" viewBox="0 0 26 27" fill="none" xmlns="http://www.w3.org/2000/svg">
<g id="Frame" clip-path="url(#clip0_2053_181)">
<path id="Vector" fill-rule="evenodd" clip-rule="evenodd" d="M0 3.55477C0 2.86521 0.273928 2.20389 0.761522 1.7163C1.24912 1.2287 1.91044 0.954773 2.6 0.954773L23.4 0.954773C24.0896 0.954773 24.7509 1.2287 25.2385 1.7163C25.7261 2.20389 26 2.86521 26 3.55477V24.3548C26 25.0443 25.7261 25.7057 25.2385 26.1933C24.7509 26.6808 24.0896 26.9548 23.4 26.9548H2.6C1.91044 26.9548 1.24912 26.6808 0.761522 26.1933C0.273928 25.7057 0 25.0443 0 24.3548L0 3.55477ZM8.66667 9.62144H6.93333V7.88811H8.66667V9.62144ZM6.93333 20.0214V11.3548H8.66667V20.0214H6.93333ZM14.7333 13.0881C14.0438 13.0881 13.3825 13.362 12.8949 13.8496C12.4073 14.3372 12.1333 14.9985 12.1333 15.6881V20.0214H10.4V11.3548H12.1333V12.2214C12.7771 11.7386 13.5427 11.4446 14.3442 11.3723C15.1457 11.3 15.9515 11.4524 16.6713 11.8123C17.3911 12.1722 17.9964 12.7254 18.4195 13.4099C18.8426 14.0945 19.0667 14.8834 19.0667 15.6881V20.0214H17.3333V15.6881C17.3333 14.9985 17.0594 14.3372 16.5718 13.8496C16.0842 13.362 15.4229 13.0881 14.7333 13.0881Z" fill="#B31221"/>
</g>
<defs>
<clipPath id="clip0_2053_181">
<rect width="26" height="26" fill="white" transform="translate(0 0.954773)"/>
</clipPath>
</defs>
</svg>
