<svg width="22" height="22" viewBox="0 0 22 22" fill="none" xmlns="http://www.w3.org/2000/svg">
<g id="Frame" clip-path="url(#clip0_2053_172)">
<path id="Vector" d="M8.80005 9.52745C8.80005 8.94398 9.03183 8.3844 9.44441 7.97182C9.85699 7.55924 10.4166 7.32745 11 7.32745C11.5835 7.32745 12.1431 7.55924 12.5557 7.97182C12.9683 8.3844 13.2 8.94398 13.2 9.52745C13.2 10.1109 12.9683 10.6705 12.5557 11.0831C12.1431 11.4957 11.5835 11.7275 11 11.7275C10.4166 11.7275 9.85699 11.4957 9.44441 11.0831C9.03183 10.6705 8.80005 10.1109 8.80005 9.52745Z" fill="#B31221"/>
<path id="Vector_2" fill-rule="evenodd" clip-rule="evenodd" d="M1.46655 9.52747C1.46772 6.99997 2.47268 4.57641 4.26045 2.78975C6.04821 1.00308 8.47239 -0.000389062 10.9999 1.13158e-07C16.2638 1.13158e-07 20.5332 4.26653 20.5332 9.52747C20.5332 13.4493 18.5708 16.5572 16.4676 18.6575C15.5379 19.5912 14.4959 20.4061 13.3656 21.0833C12.8934 21.362 12.4519 21.582 12.0676 21.7316C11.7054 21.8753 11.3255 21.9868 10.9999 21.9868C10.6743 21.9868 10.2944 21.8753 9.93215 21.7316C9.48354 21.549 9.04959 21.3323 8.63415 21.0833C7.50386 20.406 6.46191 19.5912 5.53215 18.6575C3.42895 16.5572 1.46655 13.4493 1.46655 9.52747ZM10.9999 5.86227C10.0274 5.86227 9.09479 6.24858 8.40716 6.93621C7.71953 7.62384 7.33322 8.55647 7.33322 9.52893C7.33322 10.5014 7.71953 11.434 8.40716 12.1217C9.09479 12.8093 10.0274 13.1956 10.9999 13.1956C11.9723 13.1956 12.905 12.8093 13.5926 12.1217C14.2802 11.434 14.6666 10.5014 14.6666 9.52893C14.6666 8.55647 14.2802 7.62384 13.5926 6.93621C12.905 6.24858 11.9723 5.86227 10.9999 5.86227Z" fill="#B31221"/>
</g>
<defs>
<clipPath id="clip0_2053_172">
<rect width="22" height="22" fill="white"/>
</clipPath>
</defs>
</svg>
